<svg width="187" height="35" viewBox="0 0 187 35" fill="none" xmlns="http://www.w3.org/2000/svg">
<path d="M58.5508 24.4613V9.3242H60.6787L65.8501 19.9851L70.9762 9.3242H73.1257V24.4613H71.3036V12.5895L66.5266 22.4719H65.1578L60.3817 12.676V24.4613H58.5508ZM79.9039 24.7208C79.0405 24.7208 78.3119 24.5623 77.7317 24.245C77.1584 23.9135 76.7198 23.481 76.4288 22.9476C76.1387 22.3998 75.9981 21.8159 75.9981 21.1961C75.9981 20.4464 76.1839 19.8121 76.5635 19.2931C76.9499 18.7596 77.4927 18.356 78.1929 18.0821C78.8842 17.8082 79.6954 17.6712 80.6256 17.6712H83.4675C83.4675 16.936 83.378 16.3233 83.2069 15.8332C83.0358 15.3429 82.7536 14.9754 82.3593 14.7303C81.9718 14.4852 81.4516 14.3627 80.7967 14.3627C80.1418 14.3627 79.5843 14.5285 79.1221 14.86C78.6609 15.1772 78.3708 15.6529 78.2519 16.2872H76.3845C76.474 15.5376 76.7267 14.9104 77.1505 14.406C77.5675 13.8869 78.0955 13.4977 78.7357 13.2381C79.3827 12.9643 80.0749 12.8274 80.7967 12.8274C81.8233 12.8274 82.671 13.0147 83.3337 13.3896C84.0034 13.75 84.4941 14.2617 84.8137 14.9249C85.1342 15.5736 85.2906 16.3449 85.2906 17.2388V24.4613H83.6612L83.5569 22.5151C83.4075 22.8179 83.2216 23.1063 82.9915 23.3801C82.7752 23.6396 82.5146 23.8703 82.2098 24.0721C81.9049 24.2739 81.5559 24.4324 81.1684 24.5479C80.7889 24.6632 80.3719 24.7208 79.9039 24.7208ZM80.1645 23.1855C80.6473 23.1855 81.0868 23.0774 81.488 22.8611C81.8981 22.6449 82.2471 22.3566 82.5303 21.9962C82.8352 21.6213 83.0653 21.2033 83.2295 20.742C83.3859 20.2806 83.4675 19.7977 83.4675 19.2931V19.0768H80.7741C80.0976 19.0768 79.5391 19.1634 79.1005 19.3363C78.6836 19.5093 78.3787 19.7544 78.1929 20.0715C77.9992 20.3743 77.9097 20.7203 77.9097 21.1095C77.9097 21.5276 77.9913 21.8952 78.1702 22.2124C78.3413 22.5151 78.5941 22.753 78.9294 22.926C79.2785 23.099 79.6875 23.1855 80.1645 23.1855ZM88.3035 24.4613V13.0868H89.9555L90.0892 15.1628C90.3498 14.6437 90.6842 14.2113 91.108 13.8653C91.5249 13.5193 92.0303 13.2598 92.6262 13.0868C93.2359 12.9138 93.9134 12.8274 94.6716 12.8274V14.7303H93.5407C93.1022 14.7303 92.6852 14.7879 92.2762 14.9033C91.875 15.0186 91.5023 15.2061 91.1748 15.4655C90.8552 15.725 90.6025 16.0783 90.4088 16.5251C90.223 16.9721 90.1266 17.5343 90.1266 18.2119V24.4613H88.3035ZM98.0493 29.2188L100.632 23.2503H100.006L95.7287 13.0868H97.7002L101.241 21.8447L104.932 13.0868H106.822L99.9393 29.2188H98.0493ZM114.819 24.4613V9.3241H124.067V10.8163H116.642V16.1359H122.958V17.6064H116.642V24.4613H114.819ZM130.838 24.7208C129.781 24.7208 128.843 24.4757 128.033 23.9857C127.222 23.4955 126.596 22.8035 126.143 21.9096C125.697 21.0158 125.473 19.9707 125.473 18.7741C125.473 17.5631 125.697 16.5179 126.143 15.6386C126.611 14.7448 127.244 14.0527 128.055 13.5626C128.881 13.0724 129.826 12.8274 130.882 12.8274C131.954 12.8274 132.884 13.0724 133.679 13.5626C134.491 14.0527 135.123 14.7448 135.569 15.6386C136.016 16.5179 136.246 17.5631 136.246 18.7741C136.246 19.9707 136.008 21.0158 135.547 21.9096C135.1 22.8035 134.468 23.4955 133.657 23.9857C132.847 24.4757 131.908 24.7208 130.838 24.7208ZM130.838 23.1638C131.499 23.1638 132.102 23.0053 132.638 22.6881C133.174 22.3566 133.59 21.8663 133.896 21.2176C134.215 20.5545 134.379 19.74 134.379 18.7741C134.379 17.7937 134.222 16.9792 133.917 16.3305C133.613 15.6817 133.196 15.1988 132.661 14.8817C132.14 14.5501 131.545 14.3843 130.882 14.3843C130.228 14.3843 129.632 14.5501 129.096 14.8817C128.561 15.1988 128.136 15.6817 127.817 16.3305C127.497 16.9792 127.341 17.7937 127.341 18.7741C127.341 19.74 127.489 20.5545 127.794 21.2176C128.115 21.8663 128.531 22.3566 129.052 22.6881C129.588 23.0053 130.183 23.1638 130.838 23.1638ZM138.887 24.4613V13.0868H140.539L140.621 14.8817C140.956 14.233 141.432 13.7284 142.057 13.368C142.697 13.0075 143.426 12.8274 144.251 12.8274C145.092 12.8274 145.822 12.9859 146.447 13.303C147.064 13.6202 147.547 14.1031 147.897 14.7519C148.246 15.4007 148.418 16.2224 148.418 17.2172V24.4613H146.595V17.4117C146.595 16.4026 146.343 15.6458 145.836 15.1411C145.346 14.6366 144.676 14.3843 143.835 14.3843C143.27 14.3843 142.749 14.5212 142.273 14.7952C141.797 15.0547 141.409 15.4439 141.119 15.9629C140.844 16.4819 140.71 17.1162 140.71 17.8659V24.4613H138.887ZM156.155 24.7208C155.137 24.7208 154.244 24.4613 153.462 23.9424C152.681 23.4234 152.071 22.7169 151.64 21.8232C151.2 20.9149 150.985 19.8914 150.985 18.7525C150.985 17.5991 151.2 16.5828 151.64 15.7034C152.071 14.8096 152.681 14.1105 153.462 13.6058C154.244 13.0868 155.144 12.8274 156.178 12.8274C157.071 12.8274 157.837 13.0075 158.477 13.368C159.132 13.7284 159.645 14.233 160.017 14.8817V8.8916H161.84V24.4613H160.196L160.04 22.6449C159.823 23.0052 159.533 23.344 159.168 23.6612C158.826 23.9784 158.395 24.2379 157.889 24.4398C157.398 24.6271 156.818 24.7208 156.155 24.7208ZM156.393 23.1422C157.115 23.1422 157.747 22.9693 158.283 22.6232C158.819 22.2629 159.228 21.7582 159.518 21.1095C159.809 20.4464 159.95 19.6679 159.95 18.7741C159.95 17.8803 159.809 17.109 159.518 16.4603C159.228 15.7971 158.819 15.2925 158.283 14.9466C157.747 14.5861 157.115 14.406 156.393 14.406C155.709 14.406 155.106 14.5861 154.571 14.9466C154.035 15.2925 153.612 15.7971 153.306 16.4603C153.001 17.109 152.852 17.8803 152.852 18.7741C152.852 19.6679 153.001 20.4464 153.306 21.1095C153.612 21.7582 154.035 22.2629 154.571 22.6232C155.106 22.9693 155.709 23.1422 156.393 23.1422ZM169.66 24.7208C168.648 24.7208 167.755 24.4757 166.973 23.9857C166.184 23.4955 165.575 22.8034 165.121 21.9096C164.689 21.0158 164.473 19.9706 164.473 18.7741C164.473 17.5776 164.689 16.5323 165.121 15.6386C165.575 14.7448 166.184 14.0527 166.973 13.5626C167.77 13.0724 168.677 12.8274 169.704 12.8274C170.805 12.8274 171.728 13.0724 172.464 13.5626C173.201 14.0527 173.758 14.7086 174.138 15.5304C174.51 16.3522 174.703 17.2531 174.703 18.2335C174.703 18.3777 174.703 18.5218 174.703 18.6659C174.703 18.8101 174.696 18.9832 174.681 19.185H165.842V17.7794H172.917C172.888 16.6693 172.568 15.826 171.943 15.2493C171.333 14.6582 170.574 14.3627 169.66 14.3627C169.057 14.3627 168.491 14.5141 167.97 14.8168C167.465 15.1052 167.048 15.5376 166.728 16.1142C166.416 16.691 166.251 17.4117 166.251 18.2767V18.8821C166.251 19.8337 166.416 20.6339 166.728 21.2825C167.048 21.9169 167.465 22.3925 167.97 22.7097C168.491 23.0269 169.057 23.1855 169.66 23.1855C170.47 23.1855 171.11 23.0342 171.571 22.7313C172.04 22.4142 172.375 21.9673 172.598 21.3907H174.398C174.219 22.025 173.922 22.5944 173.483 23.099C173.067 23.6036 172.531 23.9999 171.876 24.2883C171.244 24.5767 170.499 24.7208 169.66 24.7208ZM177.225 24.4613V13.0868H178.877L178.967 14.8817C179.301 14.233 179.777 13.7284 180.402 13.368C181.035 13.0075 181.771 12.8274 182.589 12.8274C183.43 12.8274 184.167 12.9859 184.784 13.303C185.41 13.6202 185.893 14.1031 186.242 14.7519C186.593 15.4007 186.764 16.2224 186.764 17.2172V24.4613H184.941V17.4117C184.941 16.4026 184.688 15.6457 184.181 15.1411C183.684 14.6366 183.021 14.3843 182.18 14.3843C181.615 14.3843 181.095 14.5212 180.618 14.7952C180.142 15.0547 179.755 15.4439 179.465 15.9629C179.19 16.4818 179.055 17.1162 179.055 17.8659V24.4613H177.225Z" fill="black"/>
<path d="M14.9713 28.7754C14.9821 27.0122 15.2525 25.2786 15.8002 23.6117C16.109 22.6708 15.7677 22.4338 14.9349 22.2634C11.4126 21.5448 7.94041 20.6261 4.62855 19.2112C3.64325 18.7888 2.70613 18.2332 1.80539 17.6553C-0.549689 16.1218 -0.599829 14.1733 1.65004 12.5065C4.85669 10.1284 8.4134 9.35046 12.3438 10.1505C15.4639 10.7803 18.2428 12.1509 20.8722 13.877C21.1879 14.0844 21.5271 14.5142 21.9047 14.2549C22.2548 14.0104 22.0257 13.5363 21.9696 13.151C21.4554 9.71353 21.2459 6.30564 22.9628 3.09045C23.66 1.77914 24.7161 0.890092 26.0849 0.275195C27.8775 -0.524911 29.3269 0.519664 29.8776 2.1199C30.3634 3.54233 30.4066 5.01657 30.3929 6.46857C30.3742 8.60962 30.1559 10.7507 29.7429 12.862C29.5728 13.7289 29.8796 14.0104 30.6761 14.1586C32.2701 14.4475 33.8247 14.8845 35.2368 15.7069C37.5555 17.07 38.0737 18.8925 36.7973 21.2411C36.2624 22.2264 35.5495 23.1079 34.6556 23.7672C33.2691 24.7896 31.7971 24.4785 30.3712 23.7894C28.6632 22.9598 27.2885 21.7077 25.9964 20.352C25.8007 20.1445 25.6237 19.9149 25.4202 19.7148C25.2363 19.5297 25.016 19.3889 24.7485 19.5445C24.485 19.7 24.5007 19.9371 24.5676 20.2038C24.7879 21.0706 25.0101 21.93 25.1959 22.8116C25.6424 24.9156 25.8479 27.0344 25.5244 29.1977C25.1871 31.4572 23.4918 33.3537 21.2312 33.902C20.3589 34.1095 19.4887 34.3761 18.5771 34.2279C16.3725 33.8723 15.2092 32.5313 14.9752 30.0644C14.9349 29.6421 14.9693 29.205 14.9693 28.7754H14.9713Z" fill="black"/>
</svg>
