<?xml version="1.0" encoding="UTF-8"?>
<svg xmlns="http://www.w3.org/2000/svg" width="204" height="40" viewBox="0 0 204 40" fill="none">
  <g id="logo" clip-path="url(#clip0_16615_2703)">
    <path id="Vector" d="M98.5618 0C87.7435 0 78.9775 8.95579 78.9775 19.9976C78.9775 31.0395 87.7482 39.9953 98.5618 39.9953C109.375 39.9953 118.146 31.0395 118.146 19.9976C118.146 8.95579 109.38 0 98.5618 0ZM98.5618 1.82529C106.009 1.82529 112.393 6.49994 115.044 13.1326C113.963 13.6778 112.398 15.0859 108.642 15.0859C105.512 15.0859 104.946 14.7683 101.375 12.9098C96.231 10.2406 91.9362 9.75702 88.3657 9.75702C86.1092 9.75702 84.8184 10.0889 83.4998 10.2833C86.6617 5.22461 92.2519 1.83003 98.5618 1.83003V1.82529ZM98.5618 38.17C91.1283 38.17 84.7627 33.519 82.0976 26.91C83.1795 26.3648 84.7581 24.9141 88.5189 24.9141C91.6483 24.9141 92.2148 25.2317 95.7852 27.0902C100.93 29.7594 105.224 30.243 108.795 30.243C111.051 30.243 112.263 29.9538 113.577 29.7594C110.415 34.8181 104.876 38.17 98.5618 38.17ZM108.307 24.0844C104.862 24.0844 101.417 23.3163 97.7864 21.2066C94.9031 19.5283 92.1498 18.7128 88.7046 18.7128C84.5724 18.7128 82.4041 19.9455 80.7744 20.6471C80.7651 20.4338 80.7651 20.2157 80.7651 19.9976C80.7651 19.1016 80.8301 18.3809 80.9508 17.5181C83.2677 16.75 84.967 15.9156 88.8486 15.9156C92.2937 15.9156 95.7388 16.6837 99.3696 18.7934C102.253 20.4717 105.006 21.2872 108.451 21.2872C112.584 21.2872 114.719 20.0687 116.344 19.3671C116.354 19.5757 116.354 19.789 116.354 19.9976C116.354 20.851 116.335 21.6238 116.224 22.444C113.907 23.212 112.189 24.0796 108.303 24.0796L108.307 24.0844Z" fill="white"></path>
    <g id="Group">
      <path id="Vector_2" d="M0 12.5449H7.15952C9.8339 12.5449 12.0115 13.7776 12.0115 16.4183C12.0115 18.4665 11.0643 19.8319 9.12352 20.2965V20.3392C10.4189 20.69 10.5025 21.8563 11.2593 23.729L12.7265 27.9153H8.54314L7.67954 25.1418C6.86237 22.5011 6.34235 21.8373 4.85659 21.8373H4.0162V27.9153H0V12.5449ZM4.01156 18.9311H5.07017C6.36557 18.9311 8.00455 18.8884 8.00455 17.1485C8.00455 15.7167 6.60236 15.4512 5.07017 15.4512H4.01156V18.9311Z" fill="white"></path>
      <path id="Vector_3" d="M21.9846 12.2793C26.9433 12.2793 29.5341 15.2946 29.5341 20.23C29.5341 25.1654 26.9015 28.1807 21.9846 28.1807C17.0676 28.1807 14.4351 25.118 14.4351 20.23C14.4351 15.342 17.0212 12.2793 21.9846 12.2793ZM21.9846 25.1417C24.4222 25.1417 25.3926 22.7617 25.3926 20.23C25.3926 17.5655 24.4222 15.3183 21.9846 15.3183C19.547 15.3183 18.5766 17.5655 18.5766 20.23C18.5766 22.8944 19.547 25.1417 21.9846 25.1417Z" fill="white"></path>
      <path id="Vector_4" d="M35.7371 22.1265L30.1748 12.5449H34.79L37.7429 18.713L40.6541 12.5449H45.2692L39.7487 22.1265V27.9201H35.7371V22.1265Z" fill="white"></path>
      <path id="Vector_5" d="M48.6494 12.5449H53.5663L59.3655 27.9153H54.9639L53.8403 24.6345H48.1897L47.0058 27.9153H42.9292L48.6447 12.5449H48.6494ZM51.1055 15.7167H51.0638L49.123 21.7283H52.8977L51.1055 15.7167Z" fill="white"></path>
      <path id="Vector_6" d="M61.1577 12.5449H65.1693V24.8763H71.3816V27.9153H61.1577V12.5449Z" fill="white"></path>
    </g>
    <g id="Group_2">
      <path id="Vector_7" d="M132.177 13.1377H137.094L142.893 28.5081H138.492L137.368 25.2273H131.718L130.534 28.5081H126.457L132.173 13.1377H132.177ZM134.633 16.3094H134.592L132.651 22.3211H136.426L134.633 16.3094Z" fill="white"></path>
      <path id="Vector_8" d="M144.249 13.1377H151.409C154.083 13.1377 156.26 14.3704 156.26 17.0111C156.26 19.0592 155.313 20.4246 153.373 20.8893V20.9319C154.668 21.2828 154.752 22.4491 155.508 24.3218L156.976 28.5081H152.792L151.929 25.7346C151.107 23.0938 150.591 22.4301 149.106 22.4301H148.265V28.5081H144.254V13.1377H144.249ZM148.261 19.5239H149.319C150.615 19.5239 152.254 19.4812 152.254 17.7412C152.254 16.3094 150.851 16.0439 149.319 16.0439H148.261V19.5239Z" fill="white"></path>
      <path id="Vector_9" d="M170.752 28.1571C169.609 28.4416 168.337 28.7735 166.29 28.7735C162.278 28.7735 157.64 26.7016 157.64 20.8891C157.64 15.5365 161.308 12.8721 166.266 12.8721C167.799 12.8721 169.284 13.2229 170.728 13.6638L170.403 16.9873C169.108 16.2619 167.859 15.9063 166.48 15.9063C163.634 15.9063 161.777 18.0208 161.777 20.8844C161.777 23.8997 163.871 25.7297 166.8 25.7297C168.114 25.7297 169.451 25.3789 170.552 24.938L170.747 28.1524L170.752 28.1571Z" fill="white"></path>
      <path id="Vector_10" d="M175.533 16.1767H171.824V13.1377H183.255V16.1767H179.545V28.5081H175.533V16.1767Z" fill="white"></path>
      <path id="Vector_11" d="M184.861 13.1377H188.873V28.5081H184.861V13.1377Z" fill="white"></path>
      <path id="Vector_12" d="M204 28.1571C202.858 28.4416 201.586 28.7735 199.538 28.7735C195.527 28.7735 190.888 26.7016 190.888 20.8891C190.888 15.5365 194.556 12.8721 199.515 12.8721C201.047 12.8721 202.533 13.2229 203.977 13.6638L203.652 16.9873C202.356 16.2619 201.107 15.9063 199.728 15.9063C196.882 15.9063 195.025 18.0208 195.025 20.8844C195.025 23.8997 197.119 25.7297 200.049 25.7297C201.363 25.7297 202.7 25.3789 203.8 24.938L203.995 28.1524L204 28.1571Z" fill="white"></path>
    </g>
  </g>
  <defs>
    <clipPath id="clip0_16615_2703">
      <rect width="204" height="40" fill="white"></rect>
    </clipPath>
  </defs>
</svg>
