<svg width="201" height="184" viewBox="0 0 201 184" fill="none" xmlns="http://www.w3.org/2000/svg">
<path d="M95.9279 77.85C95.9279 103.2 77.7779 120 50.1779 120C22.5779 120 4.27793 103.2 4.27793 77.85C4.27793 52.35 22.5779 35.55 50.1779 35.55C77.7779 35.55 95.9279 52.35 95.9279 77.85ZM57.2279 77.85C57.2279 72.45 54.5279 69.15 50.1779 69.15C45.8279 69.15 42.9779 72.45 42.9779 77.85C42.9779 83.1 45.8279 86.4 50.1779 86.4C54.5279 86.4 57.2279 83.1 57.2279 77.85ZM142.591 77.85C142.591 82.8 145.441 86.55 149.641 86.55C153.841 86.55 156.841 82.8 156.841 77.85C156.841 72.75 153.841 69 149.641 69C145.441 69 142.591 72.75 142.591 77.85ZM155.041 57.6V4.05H193.891V117H155.041V98.55C151.291 111.9 143.341 120 131.791 120C114.841 120 103.891 103.35 103.891 77.85C103.891 52.35 114.841 35.55 131.791 35.55C143.041 35.55 151.291 43.8 155.041 57.6Z" fill="black"/>
<path d="M17.1754 171.1C10.2454 171.1 5.29537 166.865 5.29537 161.035H8.26537C8.26537 165.27 12.0054 168.295 17.1754 168.295C21.9054 168.295 25.3154 165.82 25.3154 162.52C25.3154 158.615 20.4204 157.735 16.6254 157.24C10.9604 156.415 6.01037 155.37 6.01037 149.595C6.01037 144.755 10.4654 141.235 16.3504 141.235C22.8954 141.235 27.6804 145.14 27.6804 150.53L24.6554 150.475C24.6554 146.735 21.1354 144.095 16.3504 144.095C12.2254 144.095 8.98037 146.405 8.98037 149.65C8.98037 152.73 11.8954 153.665 16.9554 154.38C22.0154 155.15 28.2854 156.36 28.2854 162.3C28.2854 167.415 23.6104 171.1 17.1754 171.1ZM46.5681 165.93V160.045H48.2181V165.875C48.2181 169.01 46.1281 171.1 43.1031 171.1C40.0781 171.1 37.8781 168.955 37.8781 165.655V144.975H33.1481V142.39H37.9881L38.3181 136.01H40.9031V142.39H48.3281V144.975H40.9031V165.875C40.9031 167.91 42.1131 169.175 43.7631 169.175C45.4131 169.175 46.5681 167.855 46.5681 165.93ZM66.6599 168.295C71.9949 168.295 76.6699 164.28 76.6699 158.725V142.335H79.6949V170H76.6699V165.38C74.8549 168.9 70.7299 171.1 66.3849 171.1C59.3449 171.1 55.2199 165.875 55.2199 158.67V142.335H58.2999V158.67C58.2999 164.225 61.2149 168.295 66.6599 168.295ZM90.1733 156.195C90.1733 163.125 95.0683 168.13 101.723 168.13C108.433 168.13 113.273 163.125 113.273 156.195C113.273 149.265 108.433 144.205 101.723 144.205C95.0133 144.205 90.1733 149.265 90.1733 156.195ZM113.218 129.685H116.243V170H113.273V164.115C111.073 168.35 106.783 171.1 101.448 171.1C93.1983 171.1 87.1483 164.83 87.1483 156.195C87.1483 147.56 93.1433 141.235 101.448 141.235C106.728 141.235 111.018 143.93 113.218 148.165V129.685ZM129.007 142.335V170H125.982V142.335H129.007ZM125.212 134.47C125.212 133.15 126.147 132.215 127.522 132.215C128.842 132.215 129.832 133.15 129.832 134.47C129.832 135.845 128.842 136.78 127.522 136.78C126.147 136.78 125.212 135.845 125.212 134.47ZM166.033 156.195C166.033 164.885 159.928 171.1 151.458 171.1C142.933 171.1 136.883 164.885 136.883 156.195C136.883 147.505 142.933 141.235 151.458 141.235C159.928 141.235 166.033 147.505 166.033 156.195ZM163.008 156.195C163.008 149.155 158.168 144.095 151.458 144.095C144.748 144.095 139.908 149.155 139.908 156.195C139.908 163.18 144.748 168.295 151.458 168.295C158.168 168.295 163.008 163.18 163.008 156.195ZM183.572 171.1C176.642 171.1 171.692 166.865 171.692 161.035H174.662C174.662 165.27 178.402 168.295 183.572 168.295C188.302 168.295 191.712 165.82 191.712 162.52C191.712 158.615 186.817 157.735 183.022 157.24C177.357 156.415 172.407 155.37 172.407 149.595C172.407 144.755 176.862 141.235 182.747 141.235C189.292 141.235 194.077 145.14 194.077 150.53L191.052 150.475C191.052 146.735 187.532 144.095 182.747 144.095C178.622 144.095 175.377 146.405 175.377 149.65C175.377 152.73 178.292 153.665 183.352 154.38C188.412 155.15 194.682 156.36 194.682 162.3C194.682 167.415 190.007 171.1 183.572 171.1Z" fill="black"/>
</svg>
